<svg fill="#000000" version="1.1" id="Capa_1" xmlns="http://www.w3.org/2000/svg" xmlns:xlink="http://www.w3.org/1999/xlink" viewBox="0 0 459.999 460" xml:space="preserve"><g id="SVGRepo_bgCarrier" stroke-width="0"></g><g id="SVGRepo_tracerCarrier" stroke-linecap="round" stroke-linejoin="round"></g><g id="SVGRepo_iconCarrier"> <g> <g> <g> <path d="M449.608,112.429h-247.13c-7.209,0-14.396,5.846-16.062,13.059l-48.163,209.023c-1.661,7.213,2.837,13.059,10.045,13.059 h247.123c7.213,0,14.403-5.846,16.068-13.059l48.164-209.023C461.316,118.274,456.816,112.429,449.608,112.429z M302.021,152 l3.361-14.601c0.58-2.52,3.1-4.563,5.614-4.563h20.685c2.521,0,4.095,2.043,3.513,4.563L331.83,152 c-0.578,2.521-3.095,4.563-5.612,4.563h-20.684C303.011,156.562,301.439,154.52,302.021,152z M204.099,152l3.365-14.601 c0.583-2.52,3.094-4.563,5.614-4.563h20.688c2.518,0,4.091,2.043,3.511,4.563L233.911,152c-0.582,2.521-3.093,4.563-5.614,4.563 h-20.682C205.098,156.562,203.521,154.52,204.099,152z M197.968,307.998l-3.367,14.601c-0.581,2.521-3.093,4.563-5.612,4.563 h-20.685c-2.524,0-4.097-2.043-3.515-4.563l3.364-14.601c0.584-2.521,3.096-4.563,5.615-4.563h20.689 C196.973,303.434,198.548,305.476,197.968,307.998z M295.885,307.998l-3.365,14.601c-0.575,2.521-3.095,4.563-5.609,4.563 h-20.688c-2.521,0-4.092-2.043-3.51-4.563l3.363-14.601c0.578-2.521,3.096-4.563,5.613-4.563h20.68 C294.895,303.434,296.467,305.476,295.885,307.998z M393.804,307.998l-3.362,14.601c-0.58,2.521-3.094,4.563-5.61,4.563h-20.69 c-2.519,0-4.091-2.043-3.51-4.563l3.365-14.601c0.583-2.521,3.093-4.563,5.612-4.563h20.685 C392.811,303.434,394.385,305.476,393.804,307.998z M392.406,292.082h-215.52l28.615-124.166h215.521L392.406,292.082z M433.119,137.399L429.751,152c-0.581,2.521-3.093,4.563-5.612,4.563H403.45c-2.518,0-4.091-2.042-3.51-4.563l3.363-14.601 c0.583-2.52,3.097-4.563,5.613-4.563h20.688C432.122,132.837,433.695,134.88,433.119,137.399z"></path> <path d="M268.557,265.72c1.002,0.628,2.194,0.939,3.455,0.939c1.422,0,2.935-0.397,4.354-1.188l52.389-29.044 c2.527-1.398,4.416-3.823,5.017-6.428c0.598-2.604-0.174-5.03-2.053-6.428l-39.001-29.045c-1.998-1.493-4.949-1.587-7.689-0.248 c-2.745,1.338-4.853,3.896-5.49,6.677l-13.388,58.087C265.516,261.824,266.434,264.382,268.557,265.72z"></path> <path d="M38.97,169.529h107.04c5.67,0,10.262-4.594,10.262-10.258c0-5.664-4.592-10.256-10.262-10.256H38.97 c-5.662,0-10.257,4.592-10.257,10.256C28.713,164.935,33.308,169.529,38.97,169.529z"></path> <path d="M117.298,242.343H10.256C4.591,242.343,0,246.933,0,252.595c0,5.665,4.591,10.258,10.256,10.258h107.042 c5.662,0,10.258-4.593,10.258-10.258C127.556,246.933,122.96,242.343,117.298,242.343z"></path> <path d="M141.91,205.336c0-5.663-4.589-10.256-10.251-10.256H67.686c-5.664,0-10.254,4.593-10.254,10.256 c0,5.663,4.59,10.256,10.254,10.256h63.974C137.321,215.592,141.91,210.999,141.91,205.336z"></path> <path d="M102.941,288.402H68.759c-5.667,0-10.259,4.595-10.259,10.259c0,5.661,4.592,10.256,10.259,10.256h34.183 c5.668,0,10.257-4.595,10.257-10.256C113.198,292.996,108.609,288.402,102.941,288.402z"></path> </g> </g> </g> </g></svg>